# AST/ASF file generated using VICON BodyLanguage
# -----------------------------------------------
:version 1.10
:name VICON
:units
  mass 1.0
  length 0.45
  angle deg
:documentation
   .ast/.asf automatically generated from VICON data using
   VICON BodyBuilder and BodyLanguage model FoxedUp or BRILLIANT.MOD
:root
   order TX TY TZ RX RY RZ
   axis XYZ
   position 0 0 0  
   orientation 0 0 0 
:bonedata
  begin
     id 1 
     name lhipjoint
     direction 0.57768 -0.667037 0.470475 
     length 2.36008 
     axis 0 0 0  XYZ
  end
  begin
     id 2 
     name lfemur
     direction 0.34202 -0.939693 0  
     length 6.97235  
     axis 0 0 20  XYZ
    dof rx ry rz
    limits (-160.0 20.0)
           (-70.0 70.0)
           (-60.0 70.0)
  end
  begin
     id 3 
     name ltibia
     direction 0.34202 -0.939693 0   
     length 6.93428   
     axis 0 0 20   XYZ
    dof rx
    limits (-10.0 170.0)
  end
  begin
     id 4 
     name lfoot
     direction 0.133018 -0.365463 0.921272   
     length 2.18603   
     axis -90 7.62852e-016 20   XYZ
    dof rx rz
    limits (-45.0 90.0)
           (-70.0 20.0)
  end
  begin
     id 5 
     name ltoes
     direction 1.53519e-011 -4.22055e-011 1   
     length 1.07924   
     axis -90 7.62852e-016 20   XYZ
    dof rx
    limits (-90.0 20.0)
  end
  begin
     id 6 
     name rhipjoint
     direction -0.577712 -0.667019 0.470462   
     length 2.36015  
     axis 0 0 0  XYZ 
  end
  begin
     id 7 
     name rfemur
     direction -0.34202 -0.939693 0   
     length 6.71195   
     axis 0 0 -20   XYZ
    dof rx ry rz
    limits (-160.0 20.0)
           (-70.0 70.0)
           (-70.0 60.0)
  end
  begin
     id 8 
     name rtibia
     direction -0.34202 -0.939693 0   
     length 7.04592   
     axis 0 0 -20   XYZ
    dof rx
    limits (-10.0 170.0)
 end
 begin
     id 9 
     name rfoot
     direction -0.113796 -0.312651 0.943027   
     length 2.03846  
     axis -90 -7.62852e-016 -20   XYZ
    dof rx rz
    limits (-45.0 90.0)
           (-20.0 70.0)
  end
  begin
     id 10 
     name rtoes
     direction -1.53586e-011 -4.218e-011 1   
     length 1.01562   
     axis -90 -7.62852e-016 -20   XYZ
    dof rx
    limits (-90.0 20.0)
  end
  begin
     id 11 
     name lowerback
     direction -0.0417299 0.991937 -0.119667   
     length 2.05257   
     axis 0 0 0   XYZ
    dof rx ry rz
    limits (-20.0 45.0)
           (-30.0 30.0)
           (-30.0 30.0)
  end
  begin
     id 12 
     name upperback
     direction -0.00017666 0.999999 0.00105178   
     length 2.05693   
     axis 0 0 0   XYZ
    dof rx ry rz
    limits (-20.0 45.0)
           (-30.0 30.0)
           (-30.0 30.0)
  end
  begin
     id 13 
     name thorax
     direction 0.0185169 0.998203 0.0569866   
     length 2.0932   
     axis 0 0 0   XYZ
    dof rx ry rz
    limits (-20.0 45.0)
           (-30.0 30.0)
           (-30.0 30.0)
  end
  begin
     id 14 
     name lowerneck
     direction -0.0212406 0.982645 0.184277   
     length 1.72509   
     axis 0 0 0   XYZ
    dof rx ry rz
    limits (-20.0 45.0)
           (-30.0 30.0)
           (-30.0 30.0)
  end
  begin
     id 15 
     name upperneck
     direction 0.00528579 0.965323 -0.261004   
     length 1.76294   
     axis 0 0 0   XYZ
    dof rx ry rz
    limits (-20.0 45.0)
           (-30.0 30.0)
           (-30.0 30.0)
  end
  begin
     id 16
     name head
     direction 0.00695421 0.994078 -0.108445  
     length 1.78678  
     axis 0 0 0   XYZ
    dof rx ry rz
    limits (-20.0 45.0)
           (-30.0 30.0)
           (-30.0 30.0)
  end
  begin
     id 17 
     name lclavicle
     direction 0.97277 0.211305 -0.095232  
     length 3.84823  
     axis 0 0 0   XYZ
    dof ry rz
    limits (-20.0 10.0)
           (0.0 20.0)
  end
  begin
     id 18 
     name lhumerus
     direction 1 -4.48957e-011 -1.98313e-027   
     length 4.97185   
     axis 180 -30 -90   XYZ
    dof rx ry rz
    limits (-60.0 90.0)
           (-90.0 90.0)
           (-90.0 90.0)
  end
  begin
     id 19
     name lradius
     direction 1 -4.4898e-011 7.31063e-027   
     length 3.35811   
     axis 180 -30 -90   XYZ
    dof rx
    limits (-10.0 170.0)
  end
  begin
     id 20
     name lwrist
     direction 1 -4.48938e-011 9.95048e-027   
     length 1.67905   
     axis -8.75986e-015 90 90   XYZ
    dof ry
    limits (-180.0 0.0)
 end
  begin
     id 21 
     name lhand
     direction 1 -4.4901e-011 1.9901e-026   
     length 0.622776   
     axis -1.26985e-014 90 90   XYZ
    dof rx rz
    limits (-90.0 90.0)
           (-45.0 45.0)
  end
  begin
     id 22 
     name lfingers
     direction 1 -4.48961e-011 3.98019e-026   
     length 0.502098   
     axis -2.5397e-014 90 90   XYZ
    dof rx
    limits (0.0 90.0)
  end
  begin
     id 23
     name lthumb
     direction 0.707107 -6.34933e-011 0.707107   
     length 0.720915   
     axis -90 45 2.85299e-015   XYZ
    dof rx rz
    limits (-45.0 45.0)
           (-45.0 45.0)
  end
  begin
     id 24 
     name rclavicle
     direction -0.990867 0.133739 -0.0172226   
     length 3.78845  
     axis 0 0 0   XYZ 
    dof ry rz
    limits (-10.0 20.0)
           (-20.0 0.0)
  end
  begin
     id 25 
     name rhumerus
     direction -1 -4.48972e-011 -1.99267e-027  
     length 4.96493   
     axis 180 30 90   XYZ
    dof rx ry rz
    limits (-90.0 60.0)
           (-90.0 90.0)
           (-90.0 90.0)
  end
  begin
     id 26 
     name rradius
     direction -1 -4.48969e-011 8.96093e-027   
     length 3.34929   
     axis 180 30 90   XYZ
    dof rx
    limits (-10.0 170.0)
  end
  begin
     id 27 
     name rwrist
     direction -1 -4.48953e-011 9.95048e-027   
     length 1.67464   
     axis -8.75986e-015 -90 -90   XYZ
    dof ry
    limits (-180.0 0.0)
  end
  begin
     id 28
     name rhand
     direction -1 -4.49001e-011 1.9901e-026   
     length 0.638041   
     axis -1.26985e-014 -90 -90   XYZ
    dof rx rz
    limits (-90.0 90.0)
           (-45.0 45.0)
  end
  begin
     id 29
     name rfingers
     direction -1 -4.48967e-011 3.98019e-026   
     length 0.514405   
     axis -2.5397e-014 -90 -90   XYZ
    dof rx
    limits (0.0 90.0)
  end
  begin
     id 30
     name rthumb
     direction -0.707107 -6.34904e-011 0.707107   
     length 0.738586   
     axis -90 -45 -2.85299e-015   XYZ
    dof rx rz
    limits (-45.0 45.0)
           (-45.0 45.0)
  end
:hierarchy
  begin
    root lhipjoint rhipjoint lowerback
    lhipjoint lfemur
    lfemur ltibia
    ltibia lfoot
    lfoot ltoes
    rhipjoint rfemur
    rfemur rtibia
    rtibia rfoot
    rfoot rtoes
    lowerback upperback
    upperback thorax
    thorax lowerneck lclavicle rclavicle
    lowerneck upperneck
    upperneck head
    lclavicle lhumerus
    lhumerus lradius
    lradius lwrist
    lwrist lhand lthumb
    lhand lfingers
    rclavicle rhumerus
    rhumerus rradius
    rradius rwrist
    rwrist rhand rthumb
    rhand rfingers
  end

#!OML:ASF E:\Mandelcareful walks\Project 1\Capture day 1\Session 1\Subject1.ASF
:FULLY-SPECIFIED
:DEGREES
1
root -26.6003 16.4747 -14.1777 169.264 74.8964 162.751
lowerback -9.02306 0.00487832 -7.31666
upperback 0.912411 0.878842 -0.642406
thorax 5.94559 0.214937 3.56601
lowerneck -19.463 4.90498 0.603256
upperneck 32.417 9.55567 -3.75789
head 14.7163 3.98514 0.19509
rclavicle 7.99159e-014 -3.04544e-014
rhumerus -33.1298 -7.10474 -84.9256
rradius 29.0899
rwrist -9.58789
rhand -8.61831 -31.3466
rfingers 7.12502
rthumb 17.3138 -60.5953
lclavicle 7.99159e-014 -3.04544e-014
lhumerus -27.676 -4.648 95.8261
lradius 21.5379
lwrist 4.42712
lhand -20.6241 -8.45724
lfingers 7.12502
lthumb 5.73726 21.4451
rfemur -10.2198 -2.75686 13.2581
rtibia 26.8698
rfoot -24.8438 -13.5672
rtoes 8.47891
lfemur -9.99964 -4.6537 -25.1856
ltibia 27.2386
lfoot -23.1765 9.0855
ltoes 5.86378
2
root -26.6047 16.4791 -14.176 170.267 75.1404 163.756
lowerback -9.18501 0.079184 -6.92662
upperback 1.03415 0.949793 -0.618328
thorax 6.16239 0.250446 3.38509
lowerneck -20.0373 4.50252 0.108774
upperneck 32.5515 8.99251 -3.39767
head 14.8382 3.70833 0.336833
rclavicle -2.15557e-014 1.01877e-014
rhumerus -32.8467 -7.00483 -85.0926
rradius 29.0196
rwrist -9.75025
rhand -8.47009 -31.3548
rfingers 7.12502
rthumb 17.4565 -60.5909
lclavicle -2.15557e-014 1.01877e-014
lhumerus -27.0854 -3.46685 95.3463
lradius 21.161
lwrist 4.68816
lhand -20.1188 -9.23763
lfingers 7.12502
lthumb 6.22509 20.6509
rfemur -10.1473 -2.51726 13.6169
rtibia 26.5704
rfoot -24.6327 -13.5445
rtoes 8.67324
lfemur -10.1514 -4.63504 -24.8509
ltibia 27.4913
lfoot -23.2845 9.24814
ltoes 5.07678
3
root -26.6083 16.4843 -14.1732 171.563 75.4078 165.01
lowerback -9.52279 0.125659 -6.50488
upperback 1.22644 0.993084 -0.571839
thorax 6.55871 0.266353 3.20966
lowerneck -20.4902 4.17917 -0.351831
upperneck 32.4423 8.50944 -3.06586
head 14.8323 3.4724 0.467164
rclavicle -3.89043e-014 -2.98177e-016
rhumerus -32.4067 -7.00816 -85.2798
rradius 28.9758
rwrist -9.69721
rhand -8.55542 -31.3969
rfingers 7.12502
rthumb 17.3744 -60.6404
lclavicle -3.89043e-014 -2.98177e-016
lhumerus -26.9516 -4.84023 95.9212
lradius 21.7635
lwrist 5.63741
lhand -21.8891 -6.18957
lfingers 7.12502
lthumb 4.51582 23.7423
rfemur -10.1081 -2.04083 14.0736
rtibia 26.2356
rfoot -24.5946 -13.8017
rtoes 9.01217
lfemur -10.3777 -4.69236 -24.4396
ltibia 27.7667
lfoot -23.6118 9.42317
ltoes 4.94362
4
root -26.6129 16.4859 -14.17 172.904 75.6254 166.328
lowerback -10.1421 0.0845022 -6.26666
upperback 1.63623 0.955412 -0.373855
thorax 7.3551 0.215224 3.29197
lowerneck -20.9696 3.87993 -0.941111
upperneck 32.1137 8.13678 -2.87842
head 14.7429 3.24875 0.576701
rclavicle -6.16543e-016 1.3536e-014
rhumerus -31.5661 -6.7445 -85.3594
rradius 28.9001
rwrist -9.77923
rhand -8.43883 -31.386
rfingers 7.12502
rthumb 17.4866 -60.6195
lclavicle -6.16543e-016 1.3536e-014
lhumerus -25.668 -2.44614 94.9939
lradius 20.5129
lwrist 4.82177
lhand -19.4472 -10.7193
lfingers 7.12502
lthumb 6.87351 19.1491
rfemur -10.0468 -1.54117 14.5256
rtibia 25.8495
rfoot -24.4809 -14.1521
rtoes 9.31469
lfemur -10.6117 -4.84337 -24.0263
ltibia 28.0751
lfoot -23.9706 9.61321
ltoes 5.22866
5
root -26.621 16.4922 -14.1645 174.273 75.8567 167.653
lowerback -10.1512 0.139645 -5.79731
upperback 1.62418 0.967748 -0.375134
thorax 7.35035 0.241001 3.02825
lowerneck -20.9888 3.52433 -1.15221
upperneck 31.903 7.61479 -2.80593
head 14.6308 3.00927 0.539467
rclavicle 3.13459e-014 -1.70955e-014
rhumerus -31.4563 -6.83379 -85.5455
rradius 28.8034
rwrist -9.98786
rhand -8.53093 -30.87
rfingers 7.12502
rthumb 17.3979 -60.1114
lclavicle 3.13459e-014 -1.70955e-014
lhumerus -25.4887 -3.11557 95.1361
lradius 20.603
lwrist 6.03261
lhand -19.9691 -9.90299
lfingers 7.12502
lthumb 6.36969 19.9812
rfemur -10.0547 -0.984192 14.9811
rtibia 25.5378
rfoot -24.3305 -14.5843
rtoes 9.61179
lfemur -10.8254 -4.70047 -23.592
ltibia 28.3092
lfoot -24.1373 9.55764
ltoes 5.34247
6
root -26.6365 16.5042 -14.1592 176.654 76.2263 169.886
lowerback -9.8425 0.363593 -4.73259
upperback 1.28905 1.11677 -0.585125
thorax 6.81874 0.382773 2.22302
lowerneck -20.7111 3.18467 -0.983114
upperneck 31.7976 6.9923 -2.727
head 14.5151 2.78312 0.41866
rclavicle -2.04251e-014 -1.2921e-015
rhumerus -31.8601 -7.27277 -85.9598
rradius 28.7183
rwrist -10.4189
rhand -8.96214 -30.1868
rfingers 7.12502
rthumb 16.9829 -59.4644
lclavicle -2.04251e-014 -1.2921e-015
lhumerus -26.6983 -5.97809 95.528
lradius 21.8756
lwrist 7.30231
lhand -21.7163 -6.74738
lfingers 7.12502
lthumb 4.68272 23.1809
rfemur -10.2655 -0.246803 15.6874
rtibia 25.2647
rfoot -24.1759 -15.0496
rtoes 9.81651
lfemur -11.1855 -4.54958 -22.9092
ltibia 28.503
lfoot -24.1789 9.64058
ltoes 4.8638
7
root -26.6393 16.507 -14.161 176.214 76.3254 169.383
lowerback -9.60326 0.380842 -4.55983
upperback 1.0847 1.1157 -0.798993
thorax 6.47178 0.405939 1.89556
lowerneck -20.6321 2.92505 -1.04581
upperneck 31.8217 6.57681 -2.58958
head 14.4934 2.6182 0.406622
rclavicle 1.11568e-014 1.03368e-014
rhumerus -32.1411 -7.22867 -86.2574
rradius 28.7181
rwrist -10.7379
rhand -9.33634 -29.7847
rfingers 7.12502
rthumb 16.6227 -59.0928
lclavicle 1.11568e-014 1.03368e-014
lhumerus -26.9139 -5.30421 94.9837
lradius 21.6286
lwrist 6.09319
lhand -21.4051 -7.00724
lfingers 7.12502
lthumb 4.98323 22.9142
rfemur -10.2538 -0.425118 15.5534
rtibia 25.0684
rfoot -23.9501 -14.8452
rtoes 9.27051
lfemur -11.2787 -4.48071 -23.0369
ltibia 28.5948
lfoot -24.1602 9.68044
ltoes 4.25476
8
root -26.6456 16.5147 -14.1583 176.307 76.6232 169.451
lowerback -9.94898 0.384454 -4.74595
upperback 1.33567 1.15595 -0.610045
thorax 6.92682 0.398548 2.2124
lowerneck -20.9716 2.66648 -1.38645
upperneck 31.6876 6.31354 -2.64743
head 14.4976 2.44338 0.396234
rclavicle 1.15668e-014 9.83984e-015
rhumerus -31.6373 -6.92131 -86.1713
rradius 28.7309
rwrist -10.7065
rhand -9.41269 -29.5038
rfingers 7.12502
rthumb 16.5491 -58.8181
lclavicle 1.15668e-014 9.83984e-015
lhumerus -25.7765 -2.50326 94.3435
lradius 20.3926
lwrist 3.05574
lhand -21.0544 -8.16819
lfingers 7.12502
lthumb 5.3218 21.745
rfemur -10.2904 -0.158702 15.6241
rtibia 24.9223
rfoot -23.8947 -14.8818
rtoes 8.90731
lfemur -11.2999 -4.41301 -22.9846
ltibia 28.6496
lfoot -24.2883 9.79979
ltoes 4.41378
9
root -26.6545 16.5231 -14.1497 175.956 77.654 169.052
lowerback -9.97905 0.68313 -4.73057
upperback 1.35853 1.55608 -0.632787
thorax 6.94014 0.594557 2.24232
lowerneck -21.2407 2.42819 -1.49496
upperneck 31.7391 5.9883 -2.61426
head 14.5725 2.2849 0.372768
rclavicle -3.59552e-014 -4.57205e-015
rhumerus -31.4873 -6.76839 -86.3754
rradius 28.8486
rwrist -10.4162
rhand -9.42145 -30.1289
rfingers 7.12502
rthumb 16.5407 -59.4439
lclavicle -3.59552e-014 -4.57205e-015
lhumerus -26.0164 -4.20343 94.7068
lradius 21.0048
lwrist 4.68828
lhand -21.1288 -7.94608
lfingers 7.12502
lthumb 5.24995 21.9689
rfemur -10.6015 0.371547 15.6267
rtibia 24.8793
rfoot -23.6189 -14.5164
rtoes 8.92557
lfemur -11.2657 -4.05622 -22.9829
ltibia 28.631
lfoot -24.582 10.3773
ltoes 5.19319
10
root -26.6562 16.522 -14.1488 175.967 77.8134 169.064
lowerback -10.2218 0.683543 -4.93633
upperback 1.52496 1.58764 -0.449975
thorax 7.24498 0.585701 2.56354
lowerneck -21.4389 2.13248 -1.92316
upperneck 31.6116 5.67564 -2.57076
head 14.5426 2.09863 0.406125
rclavicle -2.70223e-015 -2.00773e-014
rhumerus -31.2218 -6.35159 -86.3179
rradius 28.8842
rwrist -10.2334
rhand -9.59161 -30.6845
rfingers 7.12502
rthumb 16.3769 -60.0131
lclavicle -2.70223e-015 -2.00773e-014
lhumerus -25.953 -4.71492 95.1195
lradius 21.3226
lwrist 5.41007
lhand -21.2313 -7.60226
lfingers 7.12502
lthumb 5.15106 22.3151
rfemur -10.6378 0.603729 15.6495
rtibia 24.8358
rfoot -23.5418 -14.6088
rtoes 8.85001
lfemur -11.2609 -4.04588 -22.9684
ltibia 28.622
lfoot -24.6079 10.6391
ltoes 5.13184
11
root -26.6557 16.52 -14.1498 175.829 77.8584 168.921
lowerback -9.93985 0.675919 -4.7753
upperback 1.3289 1.54565 -0.593624
thorax 6.88477 0.588675 2.30593
lowerneck -21.4816 1.92762 -2.04337
upperneck 31.733 5.33678 -2.32146
head 14.59 1.97137 0.466832
rclavicle -1.46976e-014 -2.33572e-014
rhumerus -31.5576 -6.35874 -86.5625
rradius 28.8396
rwrist -10.0775
rhand -9.77949 -30.5214
rfingers 7.12502
rthumb 16.196 -59.8649
lclavicle -1.46976e-014 -2.33572e-014
lhumerus -26.3304 -4.65899 94.8767
lradius 21.3672
lwrist 5.37514
lhand -21.1795 -7.74878
lfingers 7.12502
lthumb 5.20099 22.1674
rfemur -10.6425 0.459435 15.6207
rtibia 24.7884
rfoot -23.413 -14.459
rtoes 8.60404
lfemur -11.2582 -3.89421 -22.9979
ltibia 28.6158
lfoot -24.6295 10.512
ltoes 4.6654
12
root -26.6538 16.5209 -14.152 175.251 77.8522 168.373
lowerback -10.1966 0.627233 -5.09364
upperback 1.54138 1.53254 -0.455698
thorax 7.24948 0.552165 2.63686
lowerneck -21.8468 1.69517 -2.39269
upperneck 31.7672 5.1068 -2.25447
head 14.6749 1.82804 0.515893
rclavicle 1.17407e-015 -3.97569e-015
rhumerus -31.2012 -6.05311 -86.4506
rradius 28.8176
rwrist -10.3192
rhand -9.88964 -30.8783
rfingers 7.12502
rthumb 16.0899 -60.2303
lclavicle 1.17407e-015 -3.97569e-015
lhumerus -25.9378 -4.28172 95.0017
lradius 21.1573
lwrist 5.11675
lhand -21.157 -8.1198
lfingers 7.12502
lthumb 5.22274 21.7958
rfemur -10.5649 0.29841 15.488
rtibia 24.7841
rfoot -23.5953 -14.2737
rtoes 9.21723
lfemur -11.1987 -3.79262 -23.1307
ltibia 28.5878
lfoot -24.6034 10.4651
ltoes 4.91242
13
root -26.6578 16.529 -14.1519 176.015 77.9961 169.092
lowerback -9.94576 0.674705 -4.72976
upperback 1.34821 1.53744 -0.572367
thorax 6.90973 0.58481 2.30182
lowerneck -21.9311 1.53368 -2.37298
upperneck 31.9738 4.81022 -2.06079
head 14.7793 1.72727 0.539747
rclavicle 1.01504e-014 7.95139e-016
rhumerus -31.3669 -6.03259 -86.7289
rradius 28.8711
rwrist -10.3544
rhand -9.92524 -31.1274
rfingers 7.12502
rthumb 16.0556 -60.4822
lclavicle 1.01504e-014 7.95139e-016
lhumerus -26.2545 -4.54939 94.8459
lradius 21.1868
lwrist 4.93032
lhand -21.5013 -8.15649
lfingers 7.12502
lthumb 4.89028 21.7671
rfemur -10.6744 0.549984 15.6882
rtibia 24.8712
rfoot -23.8425 -14.3301
rtoes 9.95785
lfemur -11.2334 -3.92094 -22.9473
ltibia 28.477
lfoot -24.5302 10.8314
ltoes 4.98474
14
root -26.6574 16.5347 -14.1533 175.971 78.0215 169.016
lowerback -10.0982 0.656494 -4.83036
upperback 1.41307 1.53097 -0.498001
thorax 7.06244 0.570581 2.44005
lowerneck -22.0492 1.2831 -2.55172
upperneck 31.9425 4.53338 -2.1417
head 14.7917 1.57161 0.485519
rclavicle 2.46617e-014 1.14301e-014
rhumerus -31.2448 -5.89048 -86.6843
rradius 28.8857
rwrist -10.5207
rhand -10.2209 -30.8766
rfingers 7.12502
rthumb 15.7709 -60.2541
lclavicle 2.46617e-014 1.14301e-014
lhumerus -26.0893 -4.26215 94.8763
lradius 21.1682
lwrist 4.87982
lhand -21.2653 -7.93296
lfingers 7.12502
lthumb 5.11816 21.9852
rfemur -10.7473 0.549954 15.6806
rtibia 24.9939
rfoot -23.7026 -14.3316
rtoes 9.41337
lfemur -11.1925 -4.0054 -22.964
ltibia 28.3368
lfoot -24.5814 10.7986
ltoes 4.30901
